
<svg width="223px" height="67px" viewBox="0 0 223 67" version="1.1" xmlns="http://www.w3.org/2000/svg" xmlns:xlink="http://www.w3.org/1999/xlink">
    <defs>
        <polygon id="path-6sniqv7b-s-1" points="0 67 223 67 223 0 0 0"></polygon>
    </defs>
    <g id="Maquette" stroke="none" stroke-width="1" fill="none" fill-rule="evenodd">
        <g id="CNR_V1.1_15SEPT2022_1-Copy" transform="translate(-248.000000, -24.000000)">
            <g id="Group-3" transform="translate(0.000000, 0.000000)">
                <g id="Logo_couleur_horizontal" transform="translate(248.000000, 24.000000)">
                    <polygon id="Fill-1" fill="#234178" points="23 13.3915637 39.2591286 23 42 21.3801544 26.1271784 12"></polygon>
                    <polygon id="Fill-2" fill="#DC3B3E" points="17 17.5924119 33.2492875 27 36 25.4073801 19.750505 16"></polygon>
                    <polygon id="Fill-3" fill="#234178" points="5 24.7676533 5 28 28 13.6162789 25.4157041 12"></polygon>
                    <polygon id="Fill-4" fill="#DC3B3E" points="5 19.0146642 5 22 24 11.4926679 21.3009276 10"></polygon>
                    <polygon id="Fill-5" fill="#DC3B3E" points="0 45.1357888 15.8480346 54 19 52.6272988 0 42"></polygon>
                    <polygon id="Fill-6" fill="#234178" points="19 56.4241096 21.5887936 58 42 45.5756845 39.4112064 44"></polygon>
                    <polygon id="Fill-7" fill="#DC3B3E" points="20.7748432 48.6997941 20.7662515 48.6946455 13 53.4237129 15.5888156 55 36 42.5711386 33.4199713 41"></polygon>
                    <polygon id="Fill-8" fill="#DC3B3E" points="5 18.5366392 5 42 8 42 8 17"></polygon>
                    <polygon id="Fill-9" fill="#234178" points="0 21.474315 0 39.44824 17.4949994 50 20 48.489492 7.61300449 41.0183365 7.61300449 40.9789441 2.44451463 37.8615468 2.44451463 20"></polygon>
                    <g id="Group-48">
                        <polygon id="Fill-10" fill="#234178" points="48.5040508 14.5222441 48.9859012 14.5222441 48.9859012 51.7552777 48.5040508 51.7552777"></polygon>
                        <path d="M66.7331421,27.5689429 L68.3360324,28.8015678 C67.4199265,30.0489653 65.9315002,30.8516094 64.1138423,30.8516094 C60.9503465,30.8516094 58.788903,28.4145259 58.788903,25.5476586 C58.788903,22.6805943 60.9503465,20.2437078 64.1138423,20.2437078 C65.9315002,20.2437078 67.4199265,21.0609275 68.3360324,22.2791737 L66.7331421,23.5265713 C66.1604284,22.7093516 65.2588763,22.1501598 64.1138423,22.1501598 C62.2242018,22.1501598 60.8787573,23.6268279 60.8787573,25.5476586 C60.8787573,27.4686862 62.2242018,28.9449604 64.1138423,28.9449604 C65.2588763,28.9449604 66.1604284,28.3861626 66.7331421,27.5689429" id="Fill-12" fill="#234178"></path>
                        <path d="M78.5703395,25.5475995 C78.5703395,23.6267688 77.224895,22.1502977 75.3498084,22.1502977 C73.4603645,22.1502977 72.11492,23.6267688 72.11492,25.5475995 C72.11492,27.4686271 73.4603645,28.9449013 75.3498084,28.9449013 C77.224895,28.9449013 78.5703395,27.4686271 78.5703395,25.5475995 M80.6601938,25.5475995 C80.6601938,28.4146638 78.498947,30.8517473 75.3498084,30.8517473 C72.1865092,30.8517473 70.0250657,28.4146638 70.0250657,25.5475995 C70.0250657,22.6805352 72.1865092,20.2438456 75.3498084,20.2438456 C78.498947,20.2438456 80.6601938,22.6805352 80.6601938,25.5475995" id="Fill-14" fill="#234178"></path>
                        <polygon id="Fill-16" fill="#234178" points="83.4654485 20.5305324 86.0705878 20.5305324 90.550617 27.7838742 90.550617 20.5305324 92.5830426 20.5305324 92.5830426 30.5648636 89.9781 30.5648636 85.4978741 23.3113248 85.4978741 30.5648636 83.4654485 30.5648636"></polygon>
                        <path d="M96.8195505,27.8125921 C97.4207819,28.5866759 98.2224237,29.045414 99.038226,29.045414 C99.8396712,29.045414 100.326635,28.6154332 100.326635,27.8984701 C100.326635,26.0493357 95.7746234,26.5512099 95.7746234,23.153908 C95.7746234,21.5626046 97.0915502,20.2437078 99.0097084,20.2437078 C100.512492,20.2437078 101.657526,20.9175348 102.5164,21.9352678 L101.027777,23.282922 C100.441099,22.522823 99.7826358,22.0211458 99.0240655,22.0211458 C98.3081734,22.0211458 97.83596,22.480081 97.83596,23.0820148 C97.83596,24.9025888 102.387578,24.386533 102.387578,27.8269708 C102.359061,29.7190441 100.884598,30.8516094 99.0523865,30.8516094 C97.3635498,30.8516094 96.232873,30.2352969 95.3454814,29.174428 L96.8195505,27.8125921 Z" id="Fill-18" fill="#234178"></path>
                        <polygon id="Fill-20" fill="#234178" points="105.378926 20.5305324 111.218757 20.5305324 111.218757 22.2220924 107.411351 22.2220924 107.411351 24.6016613 110.646043 24.6016613 110.646043 26.2932214 107.411351 26.2932214 107.411351 28.8735005 111.218757 28.8735005 111.218757 30.5648636 105.378926 30.5648636"></polygon>
                        <mask id="mask-6sniqv7b-s-2" fill="white">
                            <use xlink:href="#path-6sniqv7b-s-1"></use>
                        </mask>
                        <g id="Clip-23"></g>
                        <polygon id="Fill-22" fill="#234178" mask="url(#mask-6sniqv7b-s-2)" points="114.439288 30.5648833 116.471517 30.5648833 116.471517 20.5305521 114.439288 20.5305521"></polygon>
                        <polygon id="Fill-24" fill="#234178" mask="url(#mask-6sniqv7b-s-2)" points="120.135822 20.5305324 122.168248 20.5305324 122.168248 28.7157292 125.975653 28.7157292 125.975653 30.5648636 120.135822 30.5648636"></polygon>
                        <polygon id="Fill-25" fill="#234178" mask="url(#mask-6sniqv7b-s-2)" points="133.203843 20.5305324 135.808982 20.5305324 140.289011 27.7838742 140.289011 20.5305324 142.321437 20.5305324 142.321437 30.5648636 139.716494 30.5648636 135.236268 23.3113248 135.236268 30.5648636 133.203843 30.5648636"></polygon>
                        <path d="M151.224322,26.2213872 L149.850164,22.4514221 L148.476201,26.2213872 L151.224322,26.2213872 Z M148.51888,20.5305915 L151.181251,20.5305915 L154.974496,30.5649227 L152.813249,30.5649227 L151.854071,27.9558863 L147.846452,27.9558863 L146.887275,30.5649227 L144.725831,30.5649227 L148.51888,20.5305915 Z" id="Fill-26" fill="#234178" mask="url(#mask-6sniqv7b-s-2)"></path>
                        <polygon id="Fill-27" fill="#234178" mask="url(#mask-6sniqv7b-s-2)" points="155.346524 20.5305324 163.562369 20.5305324 163.562369 22.3794698 160.470659 22.3794698 160.470659 30.5648636 158.438233 30.5648636 158.438233 22.3794698 155.346524 22.3794698"></polygon>
                        <polygon id="Fill-28" fill="#234178" mask="url(#mask-6sniqv7b-s-2)" points="166.210285 30.5648833 168.24271 30.5648833 168.24271 20.5305521 166.210285 20.5305521"></polygon>
                        <path d="M179.593317,25.5475995 C179.593317,23.6267688 178.247873,22.1502977 176.372786,22.1502977 C174.483342,22.1502977 173.137898,23.6267688 173.137898,25.5475995 C173.137898,27.4686271 174.483342,28.9449013 176.372786,28.9449013 C178.247873,28.9449013 179.593317,27.4686271 179.593317,25.5475995 M181.683172,25.5475995 C181.683172,28.4146638 179.521925,30.8517473 176.372786,30.8517473 C173.209487,30.8517473 171.048044,28.4146638 171.048044,25.5475995 C171.048044,22.6805352 173.209487,20.2438456 176.372786,20.2438456 C179.521925,20.2438456 181.683172,22.6805352 181.683172,25.5475995" id="Fill-29" fill="#234178" mask="url(#mask-6sniqv7b-s-2)"></path>
                        <polygon id="Fill-30" fill="#234178" mask="url(#mask-6sniqv7b-s-2)" points="184.488407 20.5305324 187.093546 20.5305324 191.573575 27.7838742 191.573575 20.5305324 193.606001 20.5305324 193.606001 30.5648636 191.001058 30.5648636 186.520832 23.3113248 186.520832 30.5648636 184.488407 30.5648636"></polygon>
                        <path d="M202.508906,26.2213872 L201.134747,22.4514221 L199.760785,26.2213872 L202.508906,26.2213872 Z M199.803463,20.5305915 L202.465834,20.5305915 L206.259079,30.5649227 L204.097832,30.5649227 L203.138655,27.9558863 L199.131036,27.9558863 L198.171858,30.5649227 L196.010415,30.5649227 L199.803463,20.5305915 Z" id="Fill-31" fill="#234178" mask="url(#mask-6sniqv7b-s-2)"></path>
                        <polygon id="Fill-32" fill="#234178" mask="url(#mask-6sniqv7b-s-2)" points="208.663493 20.5305324 210.695919 20.5305324 210.695919 28.7157292 214.503324 28.7157292 214.503324 30.5648636 208.663493 30.5648636"></polygon>
                        <path d="M61.6803205,36.8354933 L61.6803205,43.1715558 L63.6126391,43.1715558 C65.4733686,43.1715558 66.8190098,41.7811596 66.8190098,40.0035245 C66.8190098,38.2117078 65.4733686,36.8354933 63.6126391,36.8354933 L61.6803205,36.8354933 Z M59.6478949,34.9865559 L63.5841215,34.9865559 C66.7615811,34.9865559 68.9086674,37.2944285 68.9086674,40.0035245 C68.9086674,42.7130146 66.7615811,45.0208871 63.5841215,45.0208871 L59.6478949,45.0208871 L59.6478949,34.9865559 Z" id="Fill-33" fill="#234178" mask="url(#mask-6sniqv7b-s-2)"></path>
                        <polygon id="Fill-34" fill="#234178" mask="url(#mask-6sniqv7b-s-2)" points="71.7283973 34.9864771 77.5682282 34.9864771 77.5682282 36.6780372 73.7608229 36.6780372 73.7608229 39.057606 76.9955145 39.057606 76.9955145 40.7491661 73.7608229 40.7491661 73.7608229 43.3294452 77.5682282 43.3294452 77.5682282 45.0208083 71.7283973 45.0208083"></polygon>
                        <polygon id="Fill-35" fill="#234178" mask="url(#mask-6sniqv7b-s-2)" points="85.3688168 34.9864771 87.4012424 34.9864771 87.4012424 43.171674 91.2086477 43.171674 91.2086477 45.0208083 85.3688168 45.0208083"></polygon>
                        <path d="M99.5247377,40.6773319 L98.1505788,36.9073669 L96.7766166,40.6773319 L99.5247377,40.6773319 Z M96.8192948,34.9865362 L99.4816661,34.9865362 L103.274911,45.0208674 L101.113664,45.0208674 L100.154487,42.411831 L96.1468676,42.411831 L95.1876902,45.0208674 L93.0262467,45.0208674 L96.8192948,34.9865362 Z" id="Fill-36" fill="#234178" mask="url(#mask-6sniqv7b-s-2)"></path>
                        <path d="M112.291867,36.6779978 L112.291867,39.2726556 L113.436901,39.2726556 C114.295775,39.2726556 114.796703,38.7709784 114.796703,37.9537587 C114.796703,37.1940536 114.295775,36.6779978 113.436901,36.6779978 L112.291867,36.6779978 Z M110.259442,34.9864377 L113.322437,34.9864377 C115.526559,34.9864377 116.88636,36.118806 116.88636,37.982516 C116.88636,39.2007623 116.299683,40.104057 115.268916,40.5769768 L118.403894,45.0209659 L116.013326,45.0209659 L113.336794,40.9640187 L112.291867,40.9640187 L112.291867,45.0209659 L110.259442,45.0209659 L110.259442,34.9864377 Z" id="Fill-37" fill="#234178" mask="url(#mask-6sniqv7b-s-2)"></path>
                        <polygon id="Fill-38" fill="#234178" mask="url(#mask-6sniqv7b-s-2)" points="120.550469 34.9864771 126.3903 34.9864771 126.3903 36.6780372 122.582895 36.6780372 122.582895 39.057606 125.817587 39.057606 125.817587 40.7491661 122.582895 40.7491661 122.582895 43.3294452 126.3903 43.3294452 126.3903 45.0208083 120.550469 45.0208083"></polygon>
                        <polygon id="Fill-39" fill="#234178" mask="url(#mask-6sniqv7b-s-2)" points="129.610792 34.9864771 135.450623 34.9864771 135.450623 36.6780372 131.643218 36.6780372 131.643218 39.057606 134.878106 39.057606 134.878106 40.7491661 131.643218 40.7491661 131.643218 45.0208083 129.610792 45.0208083"></polygon>
                        <path d="M145.756362,40.0035639 C145.756362,38.0827333 144.410918,36.6062621 142.535831,36.6062621 C140.646387,36.6062621 139.300943,38.0827333 139.300943,40.0035639 C139.300943,41.9245916 140.646387,43.4008658 142.535831,43.4008658 C144.410918,43.4008658 145.756362,41.9245916 145.756362,40.0035639 M147.846216,40.0035639 C147.846216,42.8704313 145.684969,45.3077117 142.535831,45.3077117 C139.372532,45.3077117 137.211088,42.8704313 137.211088,40.0035639 C137.211088,37.1364996 139.372532,34.6998101 142.535831,34.6998101 C145.684969,34.6998101 147.846216,37.1364996 147.846216,40.0035639" id="Fill-40" fill="#234178" mask="url(#mask-6sniqv7b-s-2)"></path>
                        <polygon id="Fill-41" fill="#234178" mask="url(#mask-6sniqv7b-s-2)" points="150.651451 34.9864771 153.256591 34.9864771 157.73662 42.239819 157.73662 34.9864771 159.769045 34.9864771 159.769045 45.0208083 157.164103 45.0208083 152.683877 37.7672695 152.683877 45.0208083 150.651451 45.0208083"></polygon>
                        <path d="M165.46558,36.8354933 L165.46558,43.1715558 L167.397899,43.1715558 C169.258628,43.1715558 170.604269,41.7811596 170.604269,40.0035245 C170.604269,38.2117078 169.258628,36.8354933 167.397899,36.8354933 L165.46558,36.8354933 Z M163.433154,34.9865559 L167.369381,34.9865559 C170.546841,34.9865559 172.693927,37.2944285 172.693927,40.0035245 C172.693927,42.7130146 170.546841,45.0208871 167.369381,45.0208871 L163.433154,45.0208871 L163.433154,34.9865559 Z" id="Fill-42" fill="#234178" mask="url(#mask-6sniqv7b-s-2)"></path>
                        <path d="M180.523485,40.6773319 L179.149327,36.9073669 L177.775364,40.6773319 L180.523485,40.6773319 Z M177.818043,34.9865362 L180.480414,34.9865362 L184.273659,45.0208674 L182.112412,45.0208674 L181.153235,42.411831 L177.145615,42.411831 L176.186438,45.0208674 L174.024994,45.0208674 L177.818043,34.9865362 Z" id="Fill-43" fill="#234178" mask="url(#mask-6sniqv7b-s-2)"></path>
                        <polygon id="Fill-44" fill="#234178" mask="url(#mask-6sniqv7b-s-2)" points="184.645687 34.9864771 192.861532 34.9864771 192.861532 36.8354145 189.769822 36.8354145 189.769822 45.0208083 187.737397 45.0208083 187.737397 36.8354145 184.645687 36.8354145"></polygon>
                        <polygon id="Fill-45" fill="#234178" mask="url(#mask-6sniqv7b-s-2)" points="195.509546 45.0207492 197.541972 45.0207492 197.541972 34.986418 195.509546 34.986418"></polygon>
                        <path d="M208.892461,40.0035639 C208.892461,38.0827333 207.547016,36.6062621 205.67193,36.6062621 C203.782486,36.6062621 202.437041,38.0827333 202.437041,40.0035639 C202.437041,41.9245916 203.782486,43.4008658 205.67193,43.4008658 C207.547016,43.4008658 208.892461,41.9245916 208.892461,40.0035639 M210.982315,40.0035639 C210.982315,42.8704313 208.821068,45.3077117 205.67193,45.3077117 C202.508631,45.3077117 200.347187,42.8704313 200.347187,40.0035639 C200.347187,37.1364996 202.508631,34.6998101 205.67193,34.6998101 C208.821068,34.6998101 210.982315,37.1364996 210.982315,40.0035639" id="Fill-46" fill="#234178" mask="url(#mask-6sniqv7b-s-2)"></path>
                        <polygon id="Fill-47" fill="#234178" mask="url(#mask-6sniqv7b-s-2)" points="213.78757 34.9864771 216.392512 34.9864771 220.872738 42.239819 220.872738 34.9864771 222.905164 34.9864771 222.905164 45.0208083 220.300221 45.0208083 215.819995 37.7672695 215.819995 45.0208083 213.78757 45.0208083"></polygon>
                    </g>
                </g>
            </g>
        </g>
    </g>
</svg>