<?xml version="1.0" encoding="UTF-8"?><svg xmlns="http://www.w3.org/2000/svg" xmlns:xlink="http://www.w3.org/1999/xlink" viewBox="0 0 120 98"><defs><style>.d{fill:none;}.e{fill:#e62f32;}.f{fill:rgba(124,240,10,0);}.g{fill:#1f4084;}.h{clip-path:url(#c);}</style><clipPath id="c"><path class="d" d="M73.92,45.8l-13.92,8.04-13.92-8.04V29.72l13.92-8.04,13.92,8.04,8.55-4.94-22.47-12.97-22.47,12.97v25.95l22.47,12.97,22.47-12.97-8.55-4.94Z"/></clipPath></defs><g id="a"/><g id="b"><g><rect class="f" width="120" height="98"/><g><g><path class="g" d="M17.19,76.55c-1.12,0-1.91-.87-1.91-2s.79-2,1.91-2c.68,0,1.21,.33,1.55,.81l.95-.73c-.54-.72-1.42-1.2-2.49-1.2-1.87,0-3.14,1.44-3.14,3.13s1.28,3.13,3.14,3.13c1.07,0,1.95-.47,2.49-1.21l-.95-.73c-.34,.48-.87,.81-1.55,.81Z"/><path class="g" d="M23.83,71.42c-1.87,0-3.14,1.44-3.14,3.13s1.28,3.13,3.14,3.13,3.13-1.44,3.13-3.13-1.28-3.13-3.13-3.13Zm0,5.13c-1.12,0-1.91-.87-1.91-2s.79-2,1.91-2,1.9,.87,1.9,2-.79,2-1.9,2Z"/><path class="g" d="M28.61,77.5h1.2v-4.27l2.64,4.27h1.54v-5.91h-1.2v4.27l-2.64-4.27h-1.54v5.91Z"/><path class="g" d="M35.63,76.68c.52,.63,1.19,.99,2.19,.99,1.08,0,1.95-.67,1.97-1.78,0-2.03-2.69-1.72-2.69-2.8,0-.35,.28-.63,.7-.63,.45,0,.84,.3,1.18,.74l.88-.79c-.51-.6-1.18-1-2.07-1-1.13,0-1.91,.78-1.91,1.71,0,2,2.69,1.71,2.69,2.8,0,.42-.29,.68-.76,.68s-.95-.27-1.31-.73l-.87,.8Z"/><path class="g" d="M41.55,77.5h3.45v-1h-2.25v-1.52h1.91v-1h-1.91v-1.4h2.25v-1h-3.45v5.91Z"/><path class="g" d="M46.89,77.5h1.2v-5.91h-1.2v5.91Z"/><path class="g" d="M50.26,77.5h3.45v-1.09h-2.25v-4.82h-1.2v5.91Z"/><path class="g" d="M57.97,77.5h1.2v-4.27l2.64,4.27h1.54v-5.91h-1.2v4.27l-2.64-4.27h-1.54v5.91Z"/><path class="g" d="M64.77,77.5h1.28l.57-1.54h2.37l.57,1.54h1.28l-2.24-5.91h-1.57l-2.24,5.91Zm2.21-2.56l.81-2.22,.81,2.22h-1.62Z"/><path class="g" d="M71.04,72.68h1.82v4.82h1.2v-4.82h1.82v-1.09h-4.85v1.09Z"/><path class="g" d="M77.45,77.5h1.2v-5.91h-1.2v5.91Z"/><path class="g" d="M83.45,71.42c-1.87,0-3.14,1.44-3.14,3.13s1.28,3.13,3.14,3.13,3.13-1.44,3.13-3.13-1.28-3.13-3.13-3.13Zm0,5.13c-1.12,0-1.91-.87-1.91-2s.79-2,1.91-2,1.9,.87,1.9,2-.79,2-1.9,2Z"/><path class="g" d="M88.23,77.5h1.2v-4.27l2.64,4.27h1.54v-5.91h-1.2v4.27l-2.64-4.27h-1.54v5.91Z"/><path class="g" d="M95.03,77.5h1.28l.57-1.54h2.37l.57,1.54h1.28l-2.24-5.91h-1.57l-2.24,5.91Zm2.21-2.56l.81-2.22,.81,2.22h-1.62Z"/><path class="g" d="M102.5,77.5h3.45v-1.09h-2.25v-4.82h-1.2v5.91Z"/></g><g><path class="g" d="M11.83,86.02h2.32c1.88,0,3.14-1.36,3.14-2.96s-1.27-2.96-3.14-2.96h-2.32v5.91Zm2.34-4.82c1.1,0,1.89,.81,1.89,1.87s-.79,1.87-1.89,1.87h-1.14v-3.73h1.14Z"/><path class="g" d="M18.96,86.02h3.45v-1h-2.25v-1.52h1.91v-1h-1.91v-1.4h2.25v-1h-3.45v5.91Z"/><path class="g" d="M27.01,86.02h3.45v-1.09h-2.25v-4.82h-1.2v5.91Z"/><path class="g" d="M31.52,86.02h1.28l.57-1.54h2.37l.57,1.54h1.28l-2.24-5.91h-1.57l-2.24,5.91Zm2.21-2.56l.81-2.22,.81,2.22h-1.62Z"/><path class="g" d="M41.69,86.02h1.2v-2.39h.62l1.58,2.39h1.41l-1.85-2.62c.61-.28,.95-.81,.95-1.53,0-1.1-.8-1.77-2.1-1.77h-1.81v5.91Zm1.88-4.92c.51,0,.8,.3,.8,.75,0,.48-.3,.78-.8,.78h-.68v-1.53h.68Z"/><path class="g" d="M47.77,86.02h3.45v-1h-2.25v-1.52h1.91v-1h-1.91v-1.4h2.25v-1h-3.45v5.91Z"/><path class="g" d="M53.12,86.02h1.2v-2.52h1.91v-1h-1.91v-1.4h2.25v-1h-3.45v5.91Z"/><path class="g" d="M60.74,79.94c-1.87,0-3.14,1.44-3.14,3.13s1.28,3.13,3.14,3.13,3.13-1.44,3.13-3.13-1.28-3.13-3.13-3.13Zm0,5.13c-1.12,0-1.91-.87-1.91-2s.79-2,1.91-2,1.9,.87,1.9,2-.79,2-1.9,2Z"/><path class="g" d="M65.53,86.02h1.2v-4.27l2.64,4.27h1.54v-5.91h-1.2v4.27l-2.64-4.27h-1.54v5.91Z"/><path class="g" d="M73.08,86.02h2.32c1.88,0,3.14-1.36,3.14-2.96s-1.27-2.96-3.14-2.96h-2.32v5.91Zm2.34-4.82c1.1,0,1.89,.81,1.89,1.87s-.79,1.87-1.89,1.87h-1.14v-3.73h1.14Z"/><path class="g" d="M79.33,86.02h1.28l.57-1.54h2.37l.57,1.54h1.28l-2.24-5.91h-1.57l-2.24,5.91Zm2.21-2.56l.81-2.22,.81,2.22h-1.62Z"/><path class="g" d="M85.59,81.2h1.82v4.82h1.2v-4.82h1.82v-1.09h-4.85v1.09Z"/><path class="g" d="M92.01,86.02h1.2v-5.91h-1.2v5.91Z"/><path class="g" d="M98,79.94c-1.87,0-3.14,1.44-3.14,3.13s1.28,3.13,3.14,3.13,3.13-1.44,3.13-3.13-1.28-3.13-3.13-3.13Zm0,5.13c-1.12,0-1.91-.87-1.91-2s.79-2,1.91-2,1.9,.87,1.9,2-.79,2-1.9,2Z"/><path class="g" d="M102.79,86.02h1.2v-4.27l2.64,4.27h1.54v-5.91h-1.2v4.27l-2.64-4.27h-1.54v5.91Z"/></g><g class="h"><polyline class="g" points="69.89 13.61 84.41 25.89 82.98 28.36 62.78 16.7"/><polyline class="e" points="59.95 18.34 80.24 30.06 78.82 32.53 57.1 19.99"/><polygon class="g" points="43.12 31.36 78.27 11.06 76.85 8.59 43.12 28.06 43.12 31.36"/><polygon class="e" points="43.12 24.79 73.26 7.39 71.83 4.92 43.12 21.49 43.12 24.79"/><polyline class="e" points="53.35 60.44 25.25 44.22 32.19 44.31 57.16 58.72"/><rect class="g" x="67.78" y="40.5" width="2.85" height="32.45" transform="translate(83.73 -31.57) rotate(60)"/><rect class="e" x="63.62" y="36.33" width="2.85" height="32.45" transform="translate(78.04 -30.05) rotate(60)"/><rect class="e" x="43.11" y="19.67" width="2.85" height="27.02"/><polygon class="g" points="60.03 53.81 40.27 42.4 40.27 18.14 37.42 18.14 37.42 40.76 36.36 40.14 34.93 42.61 57.18 55.45 60.03 53.81"/></g></g></g></g></svg>
