<svg width="80" height="80" viewBox="0 0 80 80" fill="none" xmlns="http://www.w3.org/2000/svg">
<path fill-rule="evenodd" clip-rule="evenodd" d="M5 60C4.4486 60 4 59.5514 4 59C4 58.4486 4.4486 58 5 58C5.5514 58 6 58.4486 6 59C6 59.5514 5.5514 60 5 60Z" fill="#CACAFB"/>
<path fill-rule="evenodd" clip-rule="evenodd" d="M16 6C15.4486 6 15 5.5514 15 5C15 4.44855 15.4486 4 16 4C16.5514 4 17 4.44855 17 5C17 5.5514 16.5514 6 16 6Z" fill="#CACAFB"/>
<path fill-rule="evenodd" clip-rule="evenodd" d="M3 26C2.4486 26 2 25.5514 2 25C2 24.4486 2.4486 24 3 24C3.5514 24 4 24.4486 4 25C4 25.5514 3.5514 26 3 26Z" fill="#CACAFB"/>
<path fill-rule="evenodd" clip-rule="evenodd" d="M77 56C76.4486 56 76 55.5514 76 55C76 54.4486 76.4486 54 77 54C77.5514 54 78 54.4486 78 55C78 55.5514 77.5514 56 77 56Z" fill="#CACAFB"/>
<path fill-rule="evenodd" clip-rule="evenodd" d="M75 22C74.4486 22 74 21.5514 74 21C74 20.4486 74.4486 20 75 20C75.5514 20 76 20.4486 76 21C76 21.5514 75.5514 22 75 22Z" fill="#CACAFB"/>
<path d="M39 17C39 16.4477 38.5523 16 38 16H22L21.8834 16.0067C21.386 16.0645 21 16.4872 21 17C21 17.5523 21.4477 18 22 18H38L38.1166 17.9933C38.614 17.9355 39 17.5128 39 17Z" fill="#E1000F"/>
<path d="M50 64L49.8834 64.0067C49.386 64.0645 49 64.4872 49 65C49 65.5523 49.4477 66 50 66H58L58.1166 65.9933C58.614 65.9355 59 65.5128 59 65C59 64.4477 58.5523 64 58 64H50Z" fill="#E1000F"/>
<path d="M54 52C54.5128 52 54.9355 52.386 54.9933 52.8834L55 53V58.5858L57.2929 56.2929C57.6834 55.9024 58.3166 55.9024 58.7071 56.2929C59.0676 56.6534 59.0953 57.2206 58.7903 57.6129L58.7071 57.7071L54.7071 61.7071C54.6106 61.8036 54.4994 61.8762 54.3806 61.925C54.2783 61.9672 54.1675 61.9928 54.0515 61.9987L54.029 61.9996C54.0193 61.9999 54.0097 62 54 62C53.983 62 53.9662 61.9996 53.9494 61.9987C53.8322 61.9929 53.7202 61.9669 53.617 61.924C53.5361 61.8905 53.4587 61.846 53.3871 61.7903C53.3544 61.7649 53.3229 61.7371 53.2929 61.7071L49.2929 57.7071C48.9024 57.3166 48.9024 56.6834 49.2929 56.2929C49.6534 55.9324 50.2206 55.9047 50.6129 56.2097L50.7071 56.2929L53 58.5858V53C53 52.4477 53.4477 52 54 52Z" fill="#E1000F"/>
<path fill-rule="evenodd" clip-rule="evenodd" d="M54 46C46.8203 46 41 51.8203 41 59C41 66.1797 46.8203 72 54 72C61.1797 72 67 66.1797 67 59C67 51.8203 61.1797 46 54 46ZM54 48C60.0751 48 65 52.9249 65 59C65 65.0751 60.0751 70 54 70C47.9249 70 43 65.0751 43 59C43 52.9249 47.9249 48 54 48Z" fill="#E1000F"/>
<path d="M48 22C48.5523 22 49 22.4477 49 23C49 23.5128 48.614 23.9355 48.1166 23.9933L48 24H22C21.4477 24 21 23.5523 21 23C21 22.4872 21.386 22.0645 21.8834 22.0067L22 22H48Z" fill="#E1000F"/>
<path d="M43 29C43 28.4477 42.5523 28 42 28H22L21.8834 28.0067C21.386 28.0645 21 28.4872 21 29C21 29.5523 21.4477 30 22 30H42L42.1166 29.9933C42.614 29.9355 43 29.5128 43 29Z" fill="#E1000F"/>
<path d="M54 10C54.5128 10 54.9355 10.386 54.9933 10.8834L55 11V43C55 43.5523 54.5523 44 54 44C53.4872 44 53.0645 43.614 53.0067 43.1166L53 43V12H17V64H38C38.5128 64 38.9355 64.386 38.9933 64.8834L39 65C39 65.5128 38.614 65.9355 38.1166 65.9933L38 66H16C15.4872 66 15.0645 65.614 15.0067 65.1166L15 65V11C15 10.4872 15.386 10.0645 15.8834 10.0067L16 10H54Z" fill="#000091"/>
<path d="M48 34C48.5523 34 49 34.4477 49 35C49 35.5128 48.614 35.9355 48.1166 35.9933L48 36H22C21.4477 36 21 35.5523 21 35C21 34.4872 21.386 34.0645 21.8834 34.0067L22 34H48Z" fill="#000091"/>
<path d="M41 47C41 46.4477 40.5523 46 40 46H22L21.8834 46.0067C21.386 46.0645 21 46.4872 21 47C21 47.5523 21.4477 48 22 48H40L40.1166 47.9933C40.614 47.9355 41 47.5128 41 47Z" fill="#000091"/>
<path d="M58 10C58.5128 10 58.9355 10.386 58.9933 10.8834L59 11V43C59 43.5523 58.5523 44 58 44C57.4872 44 57.0645 43.614 57.0067 43.1166L57 43V11C57 10.4477 57.4477 10 58 10Z" fill="#000091"/>
<path d="M45 41C45 40.4477 44.5523 40 44 40H22L21.8834 40.0067C21.386 40.0645 21 40.4872 21 41C21 41.5523 21.4477 42 22 42H44L44.1166 41.9933C44.614 41.9355 45 41.5128 45 41Z" fill="#000091"/>
<path d="M32 58C32.5523 58 33 58.4477 33 59C33 59.5128 32.614 59.9355 32.1166 59.9933L32 60H22C21.4477 60 21 59.5523 21 59C21 58.4872 21.386 58.0645 21.8834 58.0067L22 58H32Z" fill="#000091"/>
<path d="M37 53C37 52.4477 36.5523 52 36 52H22L21.8834 52.0067C21.386 52.0645 21 52.4872 21 53C21 53.5523 21.4477 54 22 54H36L36.1166 53.9933C36.614 53.9355 37 53.5128 37 53Z" fill="#000091"/>
</svg>
